<?xml version="1.0" encoding="iso-8859-1"?>
<!-- Uploaded to: SVG Repo, www.svgrepo.com, Generator: SVG Repo Mixer Tools -->
<svg fill="#000000" height="800px" width="800px" version="1.1" id="Layer_1" xmlns="http://www.w3.org/2000/svg" xmlns:xlink="http://www.w3.org/1999/xlink" 
	 viewBox="0 0 512.002 512.002" xml:space="preserve">
<g>
	<g>
		<path d="M510.805,214.488c-1.323-2.19-33.054-53.63-89.808-53.63c-27.266,0-46.03,18.529-61.107,33.417
			c-8.066,7.965-16.406,16.201-21.591,16.201c-6.008,0-14.142-4.607-23.558-9.941c-17.239-9.764-40.846-23.137-75.677-23.137
			c-50.235,0-81.944,22.768-99.699,41.868c-20.142,21.665-32.653,50-32.653,73.946c0,11.15,2.812,20.51,7.294,28.248
			c-15.746,6.017-42.664,7.293-67.539-17.583c-13.94-13.94-25.797-19.71-35.226-17.157c-5.311,1.439-9.185,5.424-10.628,10.933
			c-2.164,8.26,1.504,18.58,9.345,26.291c10.898,10.717,31.93,20.399,53.581,24.667c7.294,1.438,15.893,2.535,25.145,2.534
			c14.011,0,29.519-2.523,44.266-10.185c10.853,6.971,22.92,10.176,31.687,10.176h57.888c4.588,0,8.307-3.72,8.307-8.307
			s-3.72-8.307-8.307-8.307h-4.114c4.083-4.913,8.013-10.599,11.15-16.842c1.334-2.655,2.457-5.306,3.413-7.95
			c6.424-0.1,14.636,1.345,24.051,3.018c12.266,2.181,26.093,4.605,41.898,4.906c16.208,20.475,47.063,33.483,64.187,33.483h25.843
			c4.588,0,8.307-3.72,8.307-8.307s-3.72-8.307-8.307-8.307h-13.127l-5.083-7.625c-0.095-0.142-0.125-0.217-0.043-0.389
			c0.143-0.294,0.404-0.315,0.531-0.323c18.23-1.429,56.863-18.689,72.598-73.78c0.359-1.258,1.228-2.171,2.326-2.443
			c8.139-2.013,23.303-5.515,33.422-6.358c15.521-1.293,29.108-17.756,30.606-19.629
			C512.356,221.255,512.605,217.468,510.805,214.488z M21.609,312.096c-3.663-3.601-4.893-7.305-5.006-9.225
			c2.205,0.441,7.951,2.589,18.115,12.753c4.52,4.52,9.112,8.34,13.721,11.541C36.257,322.702,26.558,316.962,21.609,312.096z
			 M478.195,227.045c-10.705,0.893-25.502,4.183-36.03,6.787c-6.844,1.693-12.328,7.06-14.313,14.01
			c-12.268,42.957-41.359,60.481-57.92,61.778c-6.183,0.485-11.483,4.084-14.176,9.627c-2.236,4.604-2.279,9.789-0.226,14.344
			c-16.489-3.582-40.42-17.186-48.139-33.416c-4.297-9.032-2.898-17.711,4.277-26.531c2.895-3.559,2.356-8.793-1.203-11.687
			c-3.559-2.895-8.793-2.357-11.687,1.203c-11.508,14.149-11.845,27.372-8.944,37.44c-10.841-0.835-20.819-2.597-29.9-4.211
			c-8.652-1.537-16.393-2.904-23.423-3.221c0.614-10.048-1.628-19.78-6.749-28.85c-2.255-3.994-7.322-5.405-11.318-3.15
			c-3.995,2.255-5.405,7.323-3.15,11.318c14.985,26.545-9.855,53.547-20.366,62.035h-30.288c-10.588,0-41.311-10.171-41.311-41.31
			c0-14.896,7.387-40.237,28.207-62.633c15.506-16.681,43.28-36.565,87.53-36.565c30.452,0,50.987,11.632,67.488,20.978
			c11.462,6.493,21.36,12.1,31.748,12.1c12.006,0,21.858-9.729,33.264-20.994c4.293-4.24,8.769-8.658,13.527-12.718
			c0,0.048-0.008,0.094-0.008,0.143c0,9.497,5.963,18.144,14.838,21.518c0.971,0.369,1.969,0.544,2.951,0.544
			c3.35,0,6.506-2.04,7.767-5.358c1.63-4.289-0.525-9.087-4.814-10.718c-2.469-0.938-4.127-3.344-4.127-5.987
			c0-3.529,2.871-6.4,6.4-6.4c2.821,0,5.278,1.805,6.114,4.494c1.362,4.381,6.02,6.828,10.4,5.465
			c4.381-1.362,6.828-6.018,5.465-10.4c-1.091-3.51-2.957-6.594-5.367-9.109c35.645,1.798,59.747,29.023,68.359,40.485
			C488.851,222.13,482.936,226.649,478.195,227.045z"/>
	</g>
</g>
<g>
	<g>
		<path d="M453.167,189.907c-5.904,0-10.708,4.803-10.708,10.708c0,5.904,4.803,10.707,10.708,10.707
			c5.904,0,10.707-4.803,10.707-10.707C463.875,194.71,459.071,189.907,453.167,189.907z"/>
	</g>
</g>
</svg>