<?xml version="1.0" encoding="utf-8"?>
<!-- Uploaded to: SVG Repo, www.svgrepo.com, Generator: SVG Repo Mixer Tools -->
<!DOCTYPE svg PUBLIC "-//W3C//DTD SVG 1.1//EN" "http://www.w3.org/Graphics/SVG/1.1/DTD/svg11.dtd">
<svg fill="#000000" width="800px" height="800px" viewBox="0 0 1000 1000" version="1.1" xmlns="http://www.w3.org/2000/svg" xmlns:xlink="http://www.w3.org/1999/xlink"  enable-background="new 0 0 1000 1000" xml:space="preserve">

<g>
<g transform="translate(0.000000,511.000000) scale(0.100000,-0.100000)">
<path d="M1465.4,3629.6c-31.4-29.5-49.1-70.7-49.1-108.1s17.7-78.6,49.1-108.1l47.1-49.1h3518.6h3518.6l47.1,49.1c64.8,62.9,64.8,153.2,0,216.1l-47.1,49.1H5031.2H1512.6L1465.4,3629.6z"/>
<path d="M1418.3,2997c-55-51.1-76.6-117.9-255.4-801.6C410.4-670.9,100-1894.9,100-1999c0-66.8,11.8-86.4,102.2-163C359.3-2295.7,709-2527.5,988-2684.7c754.4-426.3,1522.6-664,2271.1-701.3c237.7-11.8,827.1,15.7,893.9,43.2c17.7,5.9,72.7,66.8,119.8,133.6c290.8,408.6,699.4,595.3,998,459.7c57-27.5,151.3-90.4,206.3-141.5c94.3-84.5,271.1-330,365.4-502.9l35.4-64.8l455.8,11.8c520.6,11.8,831,53,1239.7,159.1c829.1,218.1,1603.1,640.4,2174.8,1188.6c180.8,174.8,178.8,159.1,104.1,491.2c-62.9,280.9-520.6,2111.9-882.1,3518.6c-229.9,893.9-277,1057-318.3,1096.2l-47.1,43.2H5041H1475.2L1418.3,2997z M8437.8,2702.3c33.4-113.9,1112-4363.4,1112-4383c0-15.7-45.2-23.6-137.5-23.6c-341.9,0-927.3-86.5-1355.6-198.4c-341.8-90.4-868.4-310.4-1145.4-477.4l-112-68.8l-143.4,143.4c-383.1,383.1-886.1,597.2-1497,634.6c-626.7,37.3-1243.6-180.7-1760.3-622.8l-68.8-58.9l-265.2,125.7c-145.4,68.8-332,149.3-418.5,178.8c-231.8,78.6-723,198.4-954.8,235.7c-259.3,39.3-793.7,57-1045.2,35.4c-167-15.7-192.5-13.8-192.5,13.8c0,21.6,827.1,3172.9,1161.1,4426.3l19.6,72.7h3396.8C8249.2,2735.7,8428,2733.7,8437.8,2702.3z M5545.9-1999c318.3-68.8,616.9-220,835-422.4l127.7-117.9l-143.4-121.8c-80.6-66.8-186.6-157.2-235.8-202.3l-92.3-78.6l-222,222c-182.7,182.7-251.5,237.7-375.2,298.6c-131.6,62.9-174.8,74.6-326.1,84.5c-143.4,7.9-202.4,2-314.3-33.4c-186.6-57-404.7-204.3-577.6-396.8l-143.4-155.2l-117.9,115.9c-64.8,62.9-167,155.2-229.9,204.3l-110,88.4l70.7,68.8c241.7,229.9,693.5,430.3,1094.3,483.3C4978.1-1934.2,5335.7-1951.9,5545.9-1999z M9225.6-2109c-151.3-139.5-461.7-349.7-697.4-475.4c-556-296.7-1296.6-499-1984.3-544.2l-186.6-11.8l113.9,110c526.5,504.9,1646.3,939.1,2607.1,1009.8c113.9,9.8,220,17.7,235.8,17.7C9329.7-2001,9290.4-2050.1,9225.6-2109z M1612.7-2087.4c436.2-68.8,787.8-178.8,1127.7-353.6c387-198.4,992.1-569.7,994.1-607.1c0-27.5-852.6,0-1060.9,35.4c-589.4,102.1-1174.8,328.1-1646.3,638.5c-216.1,143.4-383.1,277-367.4,292.7C709-2032.4,1282.7-2036.3,1612.7-2087.4z"/>
</g>
</g>
</svg>