<?xml version="1.0" encoding="iso-8859-1"?>
<!-- Uploaded to: SVG Repo, www.svgrepo.com, Generator: SVG Repo Mixer Tools -->
<!DOCTYPE svg PUBLIC "-//W3C//DTD SVG 1.1//EN" "http://www.w3.org/Graphics/SVG/1.1/DTD/svg11.dtd">
<svg fill="#000000" height="800px" width="800px" version="1.1" id="Capa_1" xmlns="http://www.w3.org/2000/svg" xmlns:xlink="http://www.w3.org/1999/xlink" 
	 viewBox="0 0 458.668 458.668" xml:space="preserve">
<path id="XMLID_1355_" d="M457.742,251.167L393.045,75.444c-12.524-34.016-42.513-58.868-78.263-64.857l-25.178-4.218
	c-4.045-0.677-8.187,0.33-11.469,2.787c-3.281,2.457-5.414,6.149-5.903,10.22c-2.601,21.667-21.043,38.006-42.899,38.006
	s-40.298-16.339-42.898-38.006c-0.488-4.07-2.622-7.763-5.903-10.22s-7.427-3.462-11.468-2.787l-25.179,4.218
	c-35.75,5.989-65.739,30.841-78.262,64.857L0.926,251.167c-2.589,7.033,0.409,14.897,7.023,18.421l26.384,14.056v64.088
	c0,8.284,6.716,15,15,15s15-6.716,15-15v-48.105l30,15.983v64.608c0,8.284,6.716,15,15,15s15-6.716,15-15v-48.625l30,15.983v63.93
	c0,8.284,6.716,15,15,15s15-6.716,15-15v-47.948l30,15.983v57.965c0,8.284,6.716,15,15,15s15-6.716,15-15v-57.965l30-15.983v47.948
	c0,8.284,6.716,15,15,15s15-6.716,15-15v-63.93l30-15.983v48.625c0,8.284,6.716,15,15,15s15-6.716,15-15v-64.608l30-15.983v48.105
	c0,8.284,6.716,15,15,15s15-6.716,15-15v-64.088l26.384-14.056C457.332,266.064,460.331,258.199,457.742,251.167z M405.645,196.497
	l-176.311,93.929L53.023,196.497l8.891-24.148l160.367,85.436c2.204,1.174,4.628,1.761,7.053,1.761s4.849-0.587,7.053-1.761
	l160.368-85.436L405.645,196.497z M93.776,85.809c8.812-23.934,29.912-41.42,55.066-45.634l11.344-1.9
	c10.038,28.846,37.478,49.107,69.148,49.107c31.669,0,59.11-20.262,69.148-49.107l11.343,1.9
	c25.155,4.214,46.255,21.7,55.067,45.634l21.399,58.122l-156.958,83.619L72.376,143.932L93.776,85.809z M229.341,353.535
	c-0.003,0-0.005,0-0.008,0s-0.005,0-0.008,0L33.597,249.26l8.963-24.345l179.721,95.746c2.204,1.174,4.628,1.762,7.053,1.762
	s4.849-0.587,7.053-1.762l179.721-95.746l8.963,24.345L229.341,353.535z"/>
</svg>