<?xml version="1.0" ?><!-- Uploaded to: SVG Repo, www.svgrepo.com, Generator: SVG Repo Mixer Tools -->
<svg fill="#000000" width="800px" height="800px" viewBox="0 0 512 512" id="icon" version="1.1" xml:space="preserve" xmlns="http://www.w3.org/2000/svg" xmlns:xlink="http://www.w3.org/1999/xlink"><path d="M440.4377136,226.9434967c6.4257813-6.2655945,5.8876953-11.7964935,4.9977722-14.5386963  c-0.8947754-2.7420044-3.7145996-7.5332031-12.5929871-8.8213043l-99.6229858-14.4763031  c-7.5020142-1.0917969-17.0274048-8.014389-20.3851013-14.8129883l-44.552002-90.2686081  c-3.9736023-8.0503998-9.4008179-9.2506943-12.2827148-9.2506943c-2.8817902,0-8.3092957,1.2002945-12.2826996,9.2506943  l-44.5473938,90.2686081c-3.3578949,6.7985992-12.8881073,13.7211914-20.3901062,14.8129883l-99.6176987,14.4763031  c-8.8832932,1.2881012-11.7032928,6.0792999-12.5985947,8.8213043c-0.8899002,2.7422028-1.4225998,8.2783051,5.0031967,14.5386963  l72.0878983,70.2663116c5.4272003,5.2930908,9.0695038,16.4942932,7.7866058,23.9704895l-17.0169067,99.2142029  c-1.5211945,8.8422852,2.1678009,13.0071106,4.5010071,14.7041016c2.3338013,1.6968079,7.4351044,3.906311,15.3769989-0.2637939  l89.0939941-46.8441162c6.7154999-3.5285034,18.4964905-3.5285034,25.2019043,0l89.1044922,46.8441162  c3.362793,1.7693787,6.2189941,2.3902893,8.5675964,2.3902893c3.1975098,0,5.4587097-1.148407,6.8039246-2.1264954  c2.3332825-1.696991,6.0224915-5.8568115,4.5012817-14.7041016l-17.0169067-99.2142029  c-1.2780762-7.4761963,2.3643188-18.6773987,7.7920227-23.9704895L440.4377136,226.9434967z M261.2976074,93.8080978  l42.0377808,85.1736069c4.9151001,9.9597015,17.3738098,19.0139008,28.3630981,20.6076965l91.6259155,13.3141937  l-162.0267944,45.8251953V93.8080978z M180.3007965,199.5894012c10.9889984-1.5937958,23.4477081-10.6430054,28.3679047-20.6076965  l42.0328979-85.1736069v164.9208984L88.6634979,212.9055023L180.3007965,199.5894012z M161.8816071,322.9706116  c1.8778992-10.9425964-2.876709-25.5899963-10.8289032-33.3456116l-69.4661026-67.7118988l165.828186,46.8961945  l-101.266098,145.8901978L161.8816071,322.9706116z M273.533905,378.615509  c-4.9154968-2.5869141-11.2221985-3.8800964-17.5342102-3.8800964c-6.3072968,0-12.6141968,1.2931824-17.5343933,3.8800964  l-85.6213074,45.0177002L255.9996948,275.024292l103.1519165,148.6051025L273.533905,378.615509z M350.1174011,322.9706116  l15.7331848,91.7288818L264.5837097,268.8092957l165.8437805-46.9049988L360.9515991,289.625  C353.0046082,297.3700867,348.2443848,312.0176086,350.1174011,322.9706116z"/></svg>