<?xml version="1.0" ?>
<!DOCTYPE svg  PUBLIC '-//W3C//DTD SVG 1.1//EN'  'http://www.w3.org/Graphics/SVG/1.1/DTD/svg11.dtd'>
<!-- Uploaded to: SVG Repo, www.svgrepo.com, Generator: SVG Repo Mixer Tools -->
<svg fill="#000000" width="800px" height="800px" viewBox="0 0 512 512" enable-background="new 0 0 512 512" id="Layer_1" version="1.1" xml:space="preserve" xmlns="http://www.w3.org/2000/svg" xmlns:xlink="http://www.w3.org/1999/xlink">
<g>
<g>
<path d="M342.627,306.103H169.373c-5.523,0-10-4.477-10-10v-37.126c0-3.584-2.916-6.5-6.5-6.5H142.56c-5.523,0-10-4.477-10-10    v-116.19c0-14.612,11.888-26.5,26.5-26.5h193.88c14.612,0,26.5,11.888,26.5,26.5v116.19c0,5.523-4.477,10-10,10h-10.313    c-3.584,0-6.5,2.916-6.5,6.5v37.126C352.627,301.626,348.15,306.103,342.627,306.103z M179.373,286.103h153.254v-27.126    c0-14.612,11.888-26.5,26.5-26.5h0.313v-106.19c0-3.584-2.916-6.5-6.5-6.5H159.06c-3.584,0-6.5,2.916-6.5,6.5v106.19h0.313    c14.612,0,26.5,11.888,26.5,26.5V286.103z"/>
</g>
<g>
<path d="M396.253,412.214H115.747c-5.523,0-10-4.477-10-10V258.977c0-14.612,11.888-26.5,26.5-26.5h20.625    c14.612,0,26.5,11.888,26.5,26.5v27.126h153.254v-27.126c0-14.612,11.888-26.5,26.5-26.5h20.625c14.612,0,26.5,11.888,26.5,26.5    v143.237C406.253,407.737,401.776,412.214,396.253,412.214z M125.747,392.214h260.507V258.977c0-3.584-2.916-6.5-6.5-6.5h-20.625    c-3.584,0-6.5,2.916-6.5,6.5v37.126c0,5.523-4.477,10-10,10H169.373c-5.523,0-10-4.477-10-10v-37.126c0-3.584-2.916-6.5-6.5-6.5    h-20.625c-3.584,0-6.5,2.916-6.5,6.5V392.214z"/>
</g>
<g>
<path d="M198.478,166.538h-0.458c-5.523,0-10-4.477-10-10s4.477-10,10-10h0.458c5.523,0,10,4.477,10,10    S204,166.538,198.478,166.538z"/>
</g>
<g>
<path d="M315.355,166.538h-0.458c-5.523,0-10-4.477-10-10s4.477-10,10-10h0.458c5.523,0,10,4.477,10,10    S320.878,166.538,315.355,166.538z"/>
</g>
<g>
<path d="M198.478,218.789h-0.458c-5.523,0-10-4.477-10-10s4.477-10,10-10h0.458c5.523,0,10,4.477,10,10    S204,218.789,198.478,218.789z"/>
</g>
<g>
<path d="M315.355,218.789h-0.458c-5.523,0-10-4.477-10-10s4.477-10,10-10h0.458c5.523,0,10,4.477,10,10    S320.878,218.789,315.355,218.789z"/>
</g>
</g>
</svg>