<?xml version="1.0" encoding="iso-8859-1"?>
<!-- Uploaded to: SVG Repo, www.svgrepo.com, Generator: SVG Repo Mixer Tools -->
<svg height="800px" width="800px" version="1.1" id="Layer_1" xmlns="http://www.w3.org/2000/svg" xmlns:xlink="http://www.w3.org/1999/xlink" 
	 viewBox="0 0 512 512" xml:space="preserve">
<g>
	<g>
		<g>
			<path style="fill:#010101;" d="M490.259,296.221H277.197v-42.395h135.881c11.958,0,21.741-8.696,21.741-20.654V22.284
				c0-11.958-9.783-21.741-21.741-21.741H97.834c-11.958,0-21.741,9.783-21.741,21.741v209.8c0,11.958,9.783,21.741,21.741,21.741
				h135.881v42.395H21.741C9.783,296.221,0,306.004,0,317.962V454.93c0,11.958,9.783,21.741,21.741,21.741h14.132v13.045
				c0,11.958,9.783,21.741,21.741,21.741s20.654-9.783,21.741-21.741v-13.045h352.204v13.045c0,11.958,9.783,21.741,21.741,21.741
				s21.741-9.783,21.741-21.741v-13.045h14.132c11.958,0,21.741-9.783,22.828-21.741V317.962
				C512,306.004,502.217,296.221,490.259,296.221z M118.488,42.938h272.849v168.493H262.213c-2.13-0.702-4.4-1.087-6.757-1.087
				s-4.627,0.385-6.757,1.087H118.488V42.938z M42.395,338.616h426.123v94.573H42.395V338.616z"/>
			<path style="fill:#010101;" d="M255.456,408.187c11.958,0,21.741-9.783,21.741-21.741v-1.087
				c0-11.958-9.783-21.741-21.741-21.741c-11.958,0-21.741,9.783-21.741,21.741v1.087
				C233.716,398.403,243.499,408.187,255.456,408.187z"/>
		</g>
	</g>
</g>
</svg>