<?xml version="1.0" ?>
<!DOCTYPE svg  PUBLIC '-//W3C//DTD SVG 1.1//EN'  'http://www.w3.org/Graphics/SVG/1.1/DTD/svg11.dtd'>
<!-- Uploaded to: SVG Repo, www.svgrepo.com, Generator: SVG Repo Mixer Tools -->
<svg fill="#000000" width="800px" height="800px" viewBox="0 0 512 512" enable-background="new 0 0 512 512" id="Layer_1" version="1.1" xml:space="preserve" xmlns="http://www.w3.org/2000/svg" xmlns:xlink="http://www.w3.org/1999/xlink">
<g>
<g>
<path d="M437.5,385.5h-363c-12.131,0-22-9.869-22-22v-215c0-12.131,9.869-22,22-22h363c12.131,0,22,9.869,22,22v215    C459.5,375.631,449.631,385.5,437.5,385.5z M74.5,146.5c-1.103,0-2,0.897-2,2v215c0,1.103,0.897,2,2,2h363c1.103,0,2-0.897,2-2    v-215c0-1.103-0.897-2-2-2H74.5z"/>
</g>
<g>
<path d="M334.5,353.5h-239c-5.523,0-10-4.477-10-10v-175c0-5.523,4.477-10,10-10h239c5.523,0,10,4.477,10,10v175    C344.5,349.023,340.023,353.5,334.5,353.5z M105.5,333.5h219v-155h-219V333.5z"/>
</g>
<g>
<path d="M404.5,237.5h-28c-5.523,0-10-4.477-10-10s4.477-10,10-10h28c5.523,0,10,4.477,10,10S410.023,237.5,404.5,237.5z"/>
</g>
<g>
<path d="M404.5,281h-28c-5.523,0-10-4.477-10-10s4.477-10,10-10h28c5.523,0,10,4.477,10,10S410.023,281,404.5,281z"/>
</g>
<g>
<path d="M404.5,324.5h-28c-5.523,0-10-4.477-10-10s4.477-10,10-10h28c5.523,0,10,4.477,10,10S410.023,324.5,404.5,324.5z"/>
</g>
</g>
</svg>