<?xml version="1.0" encoding="utf-8"?><!-- Uploaded to: SVG Repo, www.svgrepo.com, Generator: SVG Repo Mixer Tools -->
<svg width="800px" height="800px" viewBox="0 0 64 64" id="Layer_1" data-name="Layer 1" xmlns="http://www.w3.org/2000/svg"><defs><style>.cls-1{fill:none;stroke:#000000;stroke-linecap:round;stroke-linejoin:round;stroke-width:2px;}</style></defs><title>lamp, light, furniture, electronic</title><path class="cls-1" d="M35.57,36.35V45a3.58,3.58,0,0,0,1.52,2.93l4.24,3a1.64,1.64,0,0,1-.93,3H23.52a1.64,1.64,0,0,1-.93-3l4.23-3A3.58,3.58,0,0,0,28.34,45V36.35"/><path class="cls-1" d="M31.18,36.35H17a2,2,0,0,1-1.93-2.67l7.43-22.29A2,2,0,0,1,24.45,10h15a2,2,0,0,1,1.92,1.39l7.43,22.29a2,2,0,0,1-1.93,2.67H35.57"/><line class="cls-1" x1="26.71" y1="14.83" x2="23.72" y2="30.53"/><line class="cls-1" x1="31.98" y1="15.27" x2="31.95" y2="30.53"/><circle cx="31.98" cy="50.4" r="0.88"/></svg>