<?xml version="1.0" ?>
<!-- Uploaded to: SVG Repo, www.svgrepo.com, Generator: SVG Repo Mixer Tools -->
<svg width="800px" height="800px" viewBox="0 0 64 64" id="svg5" version="1.1" xml:space="preserve" xmlns="http://www.w3.org/2000/svg" xmlns:svg="http://www.w3.org/2000/svg">
<defs id="defs2"/>
<g id="layer1" transform="translate(-384,-96)">
<path d="m 416.63672,138.78516 a 0.99676087,1.0034546 30.000014 0 0 -0.94141,0.30664 l -2.14062,2.34765 -3.16211,0.0625 a 0.99676087,1.0034546 30.000014 0 0 -0.85547,1.4961 l 1.55078,2.75586 -0.93555,3.03515 a 0.99676087,1.0034546 30.000014 0 0 1.15039,1.27344 l 3.09961,-0.64453 2.58204,1.81445 a 0.99676087,1.0034546 30.000014 0 0 1.56835,-0.71094 l 0.36329,-3.15429 2.5332,-1.91407 a 0.99676087,1.0034546 30.000014 0 0 -0.18164,-1.71093 l -2.875,-1.30469 -1.01563,-2.99805 a 0.99676087,1.0034546 30.000014 0 0 -0.74023,-0.65429 z m -0.60938,2.90625 0.61328,1.80859 a 0.99676087,1.0034546 30.000014 0 0 0.5293,0.58594 l 1.73633,0.78906 -1.5293,1.1543 a 0.99676087,1.0034546 30.000014 0 0 -0.39453,0.68945 l -0.21875,1.90625 -1.56055,-1.09766 a 0.99676087,1.0034546 30.000014 0 0 -0.77343,-0.1582 l -1.87305,0.38867 0.56641,-1.83398 a 0.99676087,1.0034546 30.000014 0 0 -0.084,-0.78906 l -0.93554,-1.66211 1.9082,-0.0371 a 0.99676087,1.0034546 30.000014 0 0 0.72266,-0.32813 z" id="path68400" style="color:#000000;fill:#000000;fill-rule:evenodd;stroke-linecap:round;stroke-linejoin:round;stroke-miterlimit:4.1"/>
<path d="m 426.47852,128.77148 a 1.0034546,0.99676086 83.587861 0 0 -0.50391,0.0879 1.0034546,0.99676086 83.587861 0 0 -0.57422,0.80468 l -0.33008,3.16016 -2.50781,1.92578 a 1.0034546,0.99676086 83.587861 0 0 0.19922,1.71289 l 2.88476,1.29688 1.04688,2.99804 a 1.0034546,0.99676086 83.587861 0 0 1.68164,0.3418 l 2.11133,-2.35938 3.15625,-0.0703 a 1.0034546,0.99676086 83.587861 0 0 0.83984,-1.5039 l -1.58008,-2.75391 0.90235,-3.04297 a 1.0034546,0.99676086 83.587861 0 0 -1.16211,-1.27148 l -3.08789,0.6582 -2.59766,-1.81055 a 1.0034546,0.99676086 83.587861 0 0 -0.47851,-0.17383 z m 0.72851,2.78711 1.56836,1.0918 a 1.0034546,0.99676086 83.587861 0 0 0.77539,0.15625 l 1.86524,-0.39648 -0.54688,1.83984 a 1.0034546,0.99676086 83.587861 0 0 0.0937,0.78711 l 0.95313,1.66406 -1.90625,0.043 a 1.0034546,0.99676086 83.587861 0 0 -0.7168,0.33203 l -1.27539,1.42383 -0.63281,-1.81055 a 1.0034546,0.99676086 83.587861 0 0 -0.53516,-0.58593 l -1.74219,-0.78125 1.51563,-1.16407 a 1.0034546,0.99676086 83.587861 0 0 0.38476,-0.6914 z" id="path68398" style="color:#000000;fill:#000000;fill-rule:evenodd;stroke-linecap:round;stroke-linejoin:round;stroke-miterlimit:4.1"/>
<path d="M 403.45312,127.01758 A 0.99676086,1.0034546 34.670435 0 0 403,127.25977 l -2.32422,2.16601 -3.15625,-0.19531 a 0.99676086,1.0034546 34.670435 0 0 -0.97656,1.42187 l 1.32226,2.87305 -1.17968,2.94922 a 0.99676086,1.0034546 34.670435 0 0 1.04297,1.36133 l 3.14062,-0.39063 2.42578,2.01953 a 0.99676086,1.0034546 34.670435 0 0 1.6211,-0.58007 l 0.61914,-3.11524 2.68164,-1.70117 a 0.99676086,1.0034546 34.670435 0 0 -0.043,-1.7207 l -2.75781,-1.53321 -0.76954,-3.07226 a 0.99676086,1.0034546 34.670435 0 0 -0.68359,-0.71094 0.99676086,1.0034546 34.670435 0 0 -0.50977,-0.0137 z m -0.33593,2.85937 0.46484,1.85352 a 0.99676086,1.0034546 34.670435 0 0 0.48047,0.62695 l 1.66797,0.92774 -1.62109,1.02734 a 0.99676086,1.0034546 34.670435 0 0 -0.44727,0.6543 l -0.375,1.88086 -1.46484,-1.22071 a 0.99676086,1.0034546 34.670435 0 0 -0.75782,-0.2207 l -1.89843,0.23437 0.71289,-1.78124 a 0.99676086,1.0034546 34.670435 0 0 -0.0176,-0.79297 l -0.79883,-1.73438 1.90625,0.11914 a 0.99676086,1.0034546 34.670435 0 0 0.74609,-0.26758 z" id="path68396" style="color:#000000;fill:#000000;fill-rule:evenodd;stroke-linecap:round;stroke-linejoin:round;stroke-miterlimit:4.1"/>
<path d="m 413.88867,110.58203 a 0.99996856,1.0002346 0 0 0 -0.51172,0.0312 0.99996856,1.0002346 0 0 0 -0.66211,0.73242 l -1.15039,5.20899 -4.57226,2.73828 a 0.99996856,1.0002346 0 0 0 0.008,1.72265 l 4.5957,2.70118 1.19336,5.19726 a 0.99996856,1.0002346 0 0 0 1.63672,0.52539 l 3.98828,-3.53711 5.3125,0.47071 a 0.99996856,1.0002346 0 0 0 1.00391,-1.39649 l -2.12891,-4.88672 2.08789,-4.90625 a 0.99996856,1.0002346 0 0 0 -1.01562,-1.38867 l -5.30664,0.51563 -4.01953,-3.50196 a 0.99996856,1.0002346 0 0 0 -0.45899,-0.22656 z m 0.41602,2.83985 3.07226,2.67968 a 0.99996856,1.0002346 0 0 0 0.75391,0.24219 l 4.05859,-0.39453 -1.59765,3.75195 a 0.99996856,1.0002346 0 0 0 0.002,0.79102 l 1.63086,3.74023 -4.06055,-0.36133 a 0.99996856,1.0002346 0 0 0 -0.75195,0.24805 l -3.05078,2.70508 -0.91406,-3.97461 a 0.99996856,1.0002346 0 0 0 -0.4668,-0.63867 l -3.51563,-2.06641 3.49805,-2.0957 a 0.99996856,1.0002346 0 0 0 0.46289,-0.64453 z" id="path68394" style="color:#000000;fill:#000000;fill-rule:evenodd;stroke-linecap:round;stroke-linejoin:round;stroke-miterlimit:4.1"/>
<path d="m 413,99.992188 c -1.0907,0 -2,0.909302 -2,2.000002 v 4 c 0,0.16895 0.0235,0.33269 0.0645,0.49023 -11.43559,2.295 -20.0645,12.40403 -20.0645,24.50977 0,13.79524 11.20474,25 25,25 13.79526,0 25,-11.20476 25,-25 0,-12.10574 -8.62891,-22.21477 -20.06445,-24.50977 0.0409,-0.15754 0.0645,-0.32128 0.0645,-0.49023 v -4 c 0,-1.0907 -0.9093,-2.000002 -2,-2.000002 z m 0,2.000002 h 6 v 4 h -6 z m 3,6 c 12.71438,0 23,10.28562 23,23 0,12.71436 -10.28562,23 -23,23 -12.71438,0 -23,-10.28564 -23,-23 0,-12.71438 10.28562,-23 23,-23 z" id="circle31006" style="color:#000000;fill:#000000;fill-rule:evenodd;stroke-linecap:round;stroke-linejoin:round;stroke-miterlimit:4.1"/>
</g>
</svg>